<svg id="SvgjsSvg1001" width="288" height="288" xmlns="http://www.w3.org/2000/svg" version="1.1" xmlns:xlink="http://www.w3.org/1999/xlink" xmlns:svgjs="http://svgjs.com/svgjs"><defs id="SvgjsDefs1002"></defs><g id="SvgjsG1008" transform="matrix(0.9167,0,0,0.9167,11.993647403717034,12.014238846969619)"><svg xmlns="http://www.w3.org/2000/svg" viewBox="0 0 32 32" width="288" height="288"><path d="M16.1,8.43V5.36a1,1,0,1,1,2,0V8.43a1,1,0,0,1-2,0Zm7,3.49a1,1,0,0,0,.71-.29L26,9.46a1,1,0,0,0,0-1.41,1,1,0,0,0-1.41,0l-2.17,2.17a1,1,0,0,0,.7,1.7ZM10.37,22.26,8.2,24.43a1,1,0,0,0,0,1.42,1,1,0,0,0,1.42,0l2.17-2.17a1,1,0,1,0-1.42-1.42ZM9.58,17a1,1,0,0,0-1-1H5.52a1,1,0,0,0,0,2H8.58A1,1,0,0,0,9.58,17Zm0-8.9A1,1,0,0,0,8.2,9.46l2.17,2.17a1,1,0,0,0,.71.29,1,1,0,0,0,.71-.29,1,1,0,0,0,0-1.41Zm17.57,19.3a1,1,0,0,1-1.41,0l-3.63-3.63-2.58,3.35a1,1,0,0,1-.79.39h-.17a1,1,0,0,1-.78-.68L14.28,15.7a1,1,0,0,1,1.26-1.26L26.61,18a1,1,0,0,1,.31,1.75l-3.35,2.58,3.62,3.62A1,1,0,0,1,27.19,27.35ZM21.26,21.6l.07-.06,0,0,0,0,.07-.06,2.74-2.11-7.41-2.37,2.37,7.4Z" fill="#581b98" class="color000 svgShape"></path></svg></g></svg>