<svg id="SvgjsSvg1014" width="288" height="288" xmlns="http://www.w3.org/2000/svg" version="1.1" xmlns:xlink="http://www.w3.org/1999/xlink" xmlns:svgjs="http://svgjs.com/svgjs"><defs id="SvgjsDefs1015"></defs><g id="SvgjsG1016" transform="matrix(0.9167,0,0,0.9167,11.99527435684206,11.995154241943368)"><svg xmlns="http://www.w3.org/2000/svg" width="288" height="288" viewBox="0 0 32 32"><g transform="translate(-150.121 -1076.862)" fill="#581b98" class="color000 svgShape"><path fill="#9c1de7" style="line-height:normal;text-indent:0;text-align:start;text-decoration-line:none;text-decoration-style:solid;text-decoration-color:#000;text-transform:none;block-progression:tb;white-space:normal;isolation:auto;mix-blend-mode:normal;solid-color:#000;solid-opacity:1" d="m 165.49805,1081.3535 c -1.92708,0 -3.49999,1.5729 -3.5,3.5 0,1.4102 0.84928,2.6867 2.15039,3.2305 l 0.38672,-0.9238 c -0.93161,-0.3894 -1.53711,-1.297 -1.53711,-2.3067 0,-1.3866 1.11336,-2.5 2.5,-2.5 1.38663,0 2.49999,1.1134 2.5,2.5 l 0,0.047 c -1e-5,0.9974 -0.57788,1.8463 -1.50391,2.248 l 0.39844,0.9161 c 1.26709,-0.5497 2.10545,-1.7709 2.10547,-3.1641 l 0,-0.047 c -1e-5,-1.9271 -1.57293,-3.5 -3.5,-3.5 z" color="#000" enable-background="accumulate" font-family="sans-serif" font-weight="400" overflow="visible" class="color2b79c2 svgShape"></path><path fill="#9c1de7" style="line-height:normal;text-indent:0;text-align:start;text-decoration-line:none;text-decoration-style:solid;text-decoration-color:#000;text-transform:none;block-progression:tb;white-space:normal;isolation:auto;mix-blend-mode:normal;solid-color:#000;solid-opacity:1" d="m 165.49805,1079.3535 c -3.03166,0 -5.49999,2.4684 -5.5,5.5 2e-5,2.5439 1.75183,4.7622 4.22656,5.3516 l 0.23242,-0.9727 c -2.02949,-0.4834 -3.45897,-2.2926 -3.45898,-4.3789 1e-5,-2.4912 2.00879,-4.5 4.5,-4.5 2.49119,0 4.49999,2.0088 4.5,4.5 l 0,0.047 c -3e-5,2.074 -1.40524,3.8275 -3.42578,4.3242 l 0.24023,0.9707 c 2.44967,-0.6022 4.18551,-2.7658 4.18555,-5.2949 l 0,-0.047 c -1e-5,-3.0316 -2.46836,-5.5 -5.5,-5.5 z" color="#000" enable-background="accumulate" font-family="sans-serif" font-weight="400" overflow="visible" class="color2b79c2 svgShape"></path><path style="line-height:normal;text-indent:0;text-align:start;text-decoration-line:none;text-decoration-style:solid;text-decoration-color:#000;text-transform:none;block-progression:tb;white-space:normal;isolation:auto;mix-blend-mode:normal;solid-color:#000;solid-opacity:1" d="m 165.51562,63.740234 0,0.002 c -0.9208,0 -1.67382,0.76024 -1.67382,1.68164 l 0,9.962891 -1.5,-2.171875 c -0.49468,-0.7157 -1.47009,-1.043078 -2.26758,-0.580078 -0.40215,0.2334 -0.65023,0.627537 -0.73438,1.023437 -0.0841,0.396 -0.0346,0.794116 0.0762,1.166016 l 1.39062,4.666015 a 0.50005,0.50005 0 0 0 0.0625,0.132813 l 2.5918,3.910156 a 0.50025931,0.50025931 0 0 0 0.83398,-0.552734 l -2.55078,-3.847657 -1.36914,-4.59375 c -0.076,-0.2551 -0.0933,-0.501428 -0.0566,-0.673828 0.0367,-0.1725 0.0962,-0.271434 0.25781,-0.365234 0.33001,-0.1916 0.69502,-0.076 0.94336,0.283203 l 2.41016,3.486328 a 0.50005,0.50005 0 0 0 0.91211,-0.283203 l 0,-11.564453 c 0,-0.3876 0.29273,-0.681641 0.67382,-0.681641 0.38112,0 0.67579,0.294041 0.67579,0.681641 l 0,4.726563 0,2.554687 0,0.002 a 0.50005,0.50005 0 0 0 0.002,0.04687 0.50005,0.50005 0 0 0 0,0.002 0.50005,0.50005 0 0 0 0.006,0.04687 0.50005,0.50005 0 0 0 0,0.002 0.50005,0.50005 0 0 0 0.0117,0.04687 0.50005,0.50005 0 0 0 0,0.002 0.50005,0.50005 0 0 0 0.0176,0.04688 0.50005,0.50005 0 0 0 0,0.002 0.50005,0.50005 0 0 0 0.0215,0.04297 0.50005,0.50005 0 0 0 0,0.002 0.50005,0.50005 0 0 0 0.0254,0.04102 0.50005,0.50005 0 0 0 0,0.002 0.50005,0.50005 0 0 0 0.0293,0.03711 0.50005,0.50005 0 0 0 0,0.002 0.50005,0.50005 0 0 0 0.0332,0.03516 0.50005,0.50005 0 0 0 0.7168,-0.0098 0.50005,0.50005 0 0 0 0.0332,-0.03711 0.50005,0.50005 0 0 0 0,-0.002 0.50005,0.50005 0 0 0 0.0195,-0.02734 0.50005,0.50005 0 0 0 0.01,-0.01367 0.50005,0.50005 0 0 0 0.0234,-0.04102 0.50005,0.50005 0 0 0 0,-0.002 0.50005,0.50005 0 0 0 0.0195,-0.04492 0.50005,0.50005 0 0 0 0,-0.002 0.50005,0.50005 0 0 0 0.0156,-0.04492 0.50005,0.50005 0 0 0 0,-0.002 0.50005,0.50005 0 0 0 0.01,-0.04688 0.50005,0.50005 0 0 0 0,-0.002 0.50005,0.50005 0 0 0 0.006,-0.04883 0.50005,0.50005 0 0 0 0,-0.002 0.50005,0.50005 0 0 0 0,-0.0332 l 0,-2.554687 c 0,-0.3878 0.29457,-0.681641 0.67578,-0.681641 0.3812,0 0.67383,0.29384 0.67383,0.681641 l 0,3.15039 a 0.50005,0.50005 0 0 0 0.55664,0.503906 0.50005,0.50005 0 0 0 0.0508,-0.0098 0.50005,0.50005 0 0 0 0.39258,-0.494141 l 0,-3.15039 c 0,-0.3878 0.29457,-0.681641 0.67578,-0.681641 0.38114,0 0.67382,0.29404 0.67382,0.681641 l 0,3.703124 a 0.50005,0.50005 0 1 0 1,0 l 0,-1.339843 c 0,-0.3876 0.29465,-0.681641 0.67579,-0.681641 0.38115,0 0.67578,0.294041 0.67578,0.681641 l 0,7.429687 L 171.70703,83 a 0.50005,0.50005 0 1 0 0.89258,0.447266 l 1.58789,-3.164063 a 0.50005,0.50005 0 0 0 0.0547,-0.224609 l 0,-7.546875 c 0,-0.9214 -0.75502,-1.681641 -1.67578,-1.681641 -0.2404,0 -0.46847,0.05351 -0.67579,0.146484 l 0,-0.828124 c 0,-0.9214 -0.75306,-1.681641 -1.67382,-1.681641 -0.45687,0 -0.87251,0.187093 -1.17578,0.488281 -0.3028,-0.301188 -0.71697,-0.488281 -1.17383,-0.488281 -0.24039,0 -0.46847,0.0535 -0.67578,0.146484 l 0,-3.191406 c 0,-0.9214 -0.75496,-1.681641 -1.67579,-1.681641 z" color="#000" enable-background="accumulate" font-family="sans-serif" font-weight="400" overflow="visible" transform="translate(0 1020.362)" fill="#581b98" class="color000 svgShape"></path><path fill="#9c1de7" style="line-height:normal;text-indent:0;text-align:start;text-decoration-line:none;text-decoration-style:solid;text-decoration-color:#000;text-transform:none;block-progression:tb;white-space:normal;isolation:auto;mix-blend-mode:normal;solid-color:#000;solid-opacity:1" d="m 162.79883,1103.3535 a 0.50004997,0.50004997 0 0 0 -0.5,0.5 l 0,4 a 0.50004997,0.50004997 0 0 0 0.5,0.5 l 10.28125,0 a 0.50004997,0.50004997 0 0 0 0.5,-0.5 l 0,-4 a 0.50004997,0.50004997 0 0 0 -0.5,-0.5 l -10.28125,0 z m 0.5,1 9.28125,0 0,3 -9.28125,0 0,-3 z" color="#000" enable-background="accumulate" font-family="sans-serif" font-weight="400" overflow="visible" class="color2b79c2 svgShape"></path><path style="isolation:auto;mix-blend-mode:normal;solid-color:#000;solid-opacity:1" d="M170.49876 1105.354l1 0 0 1.0053-1 0zM168.49876 1105.354l.99471 0 0 1-.99471 0z" color="#000" enable-background="accumulate" overflow="visible" fill="#581b98" class="color000 svgShape"></path><path d="m 163.90893,1077.5248 -0.0498,0.012 -0.25165,0.068 0.26253,0.9646 0.23634,-0.065 0.67337,-0.1111 -0.0467,-0.2856 -0.0462,-0.7083 -0.0216,4e-4 -0.0505,0.01 z m 1.78953,0.8398 0.37126,0.014 0.57341,0.08 0.13745,-0.9911 -0.59735,-0.082 -0.0496,0 -0.39693,-0.015 z m -3.2112,-0.381 -0.0467,0.021 -0.61153,0.3064 -0.0424,0.024 -0.15404,0.096 0.53598,0.8467 0.12993,-0.084 0.57622,-0.2885 0.0961,-0.037 -0.35924,-0.9337 z m 5.0288,0.6965 0.41579,0.1448 0.0123,0 0.45078,0.2096 0.41842,-0.9074 -0.49614,-0.2279 -0.0434,-0.019 -0.43003,-0.1489 z m -6.87729,0.4602 -0.0357,0.032 -0.48946,0.4614 -0.0333,0.035 -0.10069,0.1157 0.7522,0.6586 0.0818,-0.092 0.46089,-0.4364 0.11545,-0.09 -0.61404,-0.7903 z m 8.53279,0.3596 0.36644,0.2625 0.37815,0.3299 0.65846,-0.7522 -0.39568,-0.3456 -0.037,-0.031 -0.3857,-0.2761 z m -9.95474,1.2571 -0.0268,0.04 -0.33799,0.5815 -0.0227,0.042 -0.0564,0.1245 0.90931,0.418 0.0455,-0.1 0.3185,-0.546 0.0931,-0.1306 -0.81252,-0.5848 z m 11.31585,-0.01 0.2886,0.3718 0.25723,0.4067 0.84679,-0.5339 -0.27134,-0.4268 -0.0282,-0.04 -0.30269,-0.3917 z m -12.22584,1.971 -0.0143,0.047 -0.15927,0.6652 -0.01,0.05 -0.0126,0.096 0.99101,0.1376 0.008,-0.068 0.14994,-0.6268 0.064,-0.1784 -0.94605,-0.3274 z m 13.17871,-0.3901 0.18902,0.4973 0.11143,0.404 0.96434,-0.2646 -0.11866,-0.4324 -0.0153,-0.047 -0.19686,-0.5141 z m -13.48553,2.5901 -1e-5,0.051 0.0453,0.7004 0.9973,-0.064 -0.0432,-0.6654 0.0105,-0.2843 -0.999,-0.036 z m 13.99782,-0.1403 -0.008,0.2505 0.99923,0.038 0.0105,-0.2844 -0.002,-0.051 -0.045,-0.7144 -0.99924,0.064 z m -13.74752,1.9712 0.11515,0.4193 0.0153,0.047 0.20251,0.5292 0.93377,-0.3593 -0.19402,-0.5065 -0.10814,-0.3925 z m 13.63501,-0.6783 -0.14957,0.6129 -0.0558,0.1637 0.9441,0.3276 0.0663,-0.1925 0.0143,-0.047 0.15928,-0.6652 0.0101,-0.048 0.0147,-0.1117 -0.991,-0.1376 z m -12.80415,2.6509 0.26226,0.4161 0.028,0.038 0.3118,0.4026 0.79037,-0.6141 -0.2929,-0.3752 -0.25464,-0.4013 z m 12.18544,-0.8712 -0.29857,0.514 -0.009,0.011 -0.0931,0.1306 0.81228,0.5828 0.10166,-0.1415 0.0268,-0.04 0.33799,-0.5816 0.0227,-0.042 0.0626,-0.1389 -0.90716,-0.4165 z m -10.83304,2.5241 0.38486,0.3372 0.0387,0.029 0.39651,0.2846 0.58273,-0.8123 -0.37726,-0.2711 -0.36711,-0.3195 z m 1.7647,1.2044 0.48166,0.2218 0.0454,0.018 0.44235,0.1534 0.32768,-0.9441 -0.41988,-0.1462 -0.46072,-0.2104 z" color="#000" enable-background="accumulate" font-family="sans-serif" font-weight="400" overflow="visible" style="line-height:normal;text-indent:0;text-align:start;text-decoration-line:none;text-decoration-style:solid;text-decoration-color:#000;text-transform:none;block-progression:tb;white-space:normal;isolation:auto;mix-blend-mode:normal;solid-color:#000;solid-opacity:1" fill="#581b98" class="color000 svgShape"></path></g></svg></g></svg>